# xmcd
# 
# Track frame offsets:
#     150
#     26394
#     44417
#     65002
#     87080
#     108287
#     124875
#     142090
#     162612
#     181307
#     202552
# 
# Disc length: 2929
# 
# Revision: 1
# Processed by: cddbd v1.5.2PL0 Copyright (c) Steve Scherf et al.
# Submitted via: fre:ac v1.0.17
# 
DISCID=940b6f0b
DTITLE=ABBA - The Album
DYEAR=1977
DGENRE=Classical
TTITLE0=Eagle
TTITLE1=Take a Chance on Me
TTITLE2=One Man, One Woman
TTITLE3=The Name of the Game
TTITLE4=Move On
TTITLE5=Hole in Your Soul
TTITLE6=Thank You for the Music
TTITLE7=I Wonder (Departure)
TTITLE8=I'm a Marionette
TTITLE9=Al Andar
TTITLE10=Gracias Por La Musica
EXTD=
EXTT0=
EXTT1=
EXTT2=
EXTT3=
EXTT4=
EXTT5=
EXTT6=
EXTT7=
EXTT8=
EXTT9=
EXTT10=
PLAYORDER=
